<?xml version="1.0" encoding="utf-8"?>
<!-- Generator: Adobe Illustrator 21.0.0, SVG Export Plug-In . SVG Version: 6.00 Build 0)  -->
<svg version="1.1" id="Layer_1" xmlns="http://www.w3.org/2000/svg" xmlns:xlink="http://www.w3.org/1999/xlink" x="0px" y="0px"
	 viewBox="0 0 90.4 63" style="enable-background:new 0 0 90.4 63;" xml:space="preserve">
<style type="text/css">
	.st0{fill:#FFFFFF;}
</style>
<g>
	<g>
		<path class="st0" d="M56.5,15.3c0.4-0.4,0.7-1,0.7-1.7s-0.2-1.2-0.7-1.7l-0.1-0.1c-0.4-0.4-1-0.7-1.7-0.7c-0.6,0-1.1,0.2-1.6,0.6
			V4.2c0-1.3-1.1-2.4-2.4-2.4h-0.1c-0.3,0-0.5,0-0.8,0.1C49.7,0.8,48.7,0,47.5,0h-0.1c-1.1,0-2,0.7-2.3,1.7
			c-0.3-0.1-0.6-0.2-0.9-0.2h-0.1c-1.3,0-2.4,1.1-2.4,2.4v0.2C41.5,4,41.2,4,41,4h-0.1c-1.3,0-2.4,1.1-2.4,2.4v10.2
			c0,1.2,0.4,2.2,1.2,3.1l0.6,0.6c0.5,0.6,0.8,1.2,0.8,2v18.1h1.6V22.2c0-1.2-0.4-2.2-1.2-3.1l-0.6-0.6c-0.5-0.6-0.8-1.2-0.8-1.4
			V6.9c0-1,0.4-1.4,0.8-1.4H41c0.3,0,0.6,0.2,0.7,0.5V12c0,0.4,0.4,0.8,0.8,0.8c0.4,0,0.8-0.4,0.8-0.8v-6v-2c0-0.4,0.4-0.8,0.8-0.8
			h0.1c0.4,0,0.7,0.3,0.8,0.7v7.1c0,0.4,0.4,0.8,0.8,0.8c0.4,0,0.8-0.4,0.8-0.8V3.7V2.4c0-0.4,0.4-0.8,0.8-0.8h0.1
			c0.4,0,0.8,0.4,0.8,0.8v1.4c0,0,0,0,0,0.1v7.7c0,0.4,0.4,0.8,0.8,0.8c0.4,0,0.8-0.4,0.8-0.8V3.9c0.1-0.3,0.4-0.6,0.7-0.6h0.1
			c0.4,0,0.8,0.4,0.8,0.8v9.5c0,0.3,0.2,0.6,0.5,0.7c0.3,0.1,0.6,0.1,0.9-0.2l1.2-1.2c0.3-0.3,0.8-0.3,1.1,0l0.1,0.1
			c0.1,0.1,0.2,0.3,0.2,0.6s-0.1,0.4-0.2,0.6c-1.4,1.4-2.7,2.7-4,4l-1.3,1.3c-0.8,0.8-1.2,1.7-1.2,2.8v19.8h1.6V22.3
			c0-0.7,0.2-1.2,0.7-1.7l1.3-1.3C53.8,18,55.1,16.7,56.5,15.3z"/>
		<path class="st0" d="M35,18.7h-0.1c-0.3,0-0.5,0-0.7,0.1v-0.2c0-1.3-1.1-2.4-2.4-2.4h-0.1c-0.3,0-0.6,0.1-0.9,0.2
			c-0.3-1-1.2-1.7-2.3-1.7h-0.1c-1.2,0-2.1,0.8-2.3,1.9c-0.3-0.1-0.5-0.1-0.8-0.1H25c-1.3,0-2.4,1.1-2.4,2.4v7.6
			c-0.4-0.4-1-0.6-1.6-0.6c-0.6,0-1.2,0.2-1.7,0.7l-0.1,0.1c-0.9,0.9-0.9,2.4,0,3.4c1.4,1.4,2.7,2.7,4,4l1.3,1.3
			c0.5,0.5,0.7,1,0.7,1.7v8.8h1.6V37c0-1.1-0.4-2-1.2-2.8l-1.3-1.3c-1.3-1.3-2.6-2.6-4-4c-0.3-0.3-0.3-0.8,0-1.1l0.1-0.1
			c0.3-0.3,0.8-0.3,1.1,0l1.2,1.2c0.2,0.2,0.6,0.3,0.9,0.2c0.3-0.1,0.5-0.4,0.5-0.7v-9.5c0-0.4,0.4-0.8,0.8-0.8h0.1
			c0.4,0,0.7,0.3,0.8,0.6v7.5c0,0.4,0.4,0.8,0.8,0.8c0.4,0,0.8-0.4,0.8-0.8v-8c0,0,0-0.1,0-0.1v-1.1c0-0.4,0.4-0.8,0.8-0.8h0.1
			c0.4,0,0.8,0.4,0.8,0.8v1.3v6.6c0,0.4,0.4,0.8,0.8,0.8c0.4,0,0.8-0.4,0.8-0.8v-6.5c0.1-0.4,0.4-0.7,0.8-0.7h0.1
			c0.4,0,0.8,0.4,0.8,0.8v2v5.1c0,0.4,0.4,0.8,0.8,0.8c0.4,0,0.8-0.4,0.8-0.8v-5c0.1-0.3,0.4-0.5,0.7-0.5H35c0.4,0,0.8,0.4,0.8,0.8
			v10.2c0,0.8-0.3,1.4-0.8,2l-0.6,0.6c-0.8,0.9-1.2,1.9-1.2,3.1v5.3h1.6v-5.3c0-0.8,0.3-1.4,0.8-2l0.6-0.6c0.8-0.9,1.2-1.9,1.2-3.1
			V21.1C37.4,19.8,36.3,18.7,35,18.7z"/>
		<path class="st0" d="M68.6,19.1h-0.1c-0.3,0-0.5,0-0.7,0.1v-0.2c0-1.3-1.1-2.4-2.4-2.4h-0.1c-0.3,0-0.6,0.1-0.9,0.2
			c-0.3-1-1.2-1.7-2.3-1.7h-0.1c-1.2,0-2.1,0.8-2.3,1.9C59.3,17,59.1,17,58.8,17h-0.1c-1.3,0-2.4,1.1-2.4,2.4v7.6
			c-0.4-0.4-1-0.6-1.6-0.6c-0.6,0-1.2,0.2-1.7,0.7l-0.1,0.1c-0.4,0.4-0.7,1-0.7,1.7c0,0.6,0.2,1.2,0.7,1.7c1.4,1.4,2.7,2.7,4,3.9
			l1.4,1.4c0.5,0.5,0.7,1,0.7,1.7v6.6h1.6v-6.6c0-1.1-0.4-2-1.2-2.8L58,33.3c-1.3-1.3-2.6-2.6-4-3.9c-0.1-0.1-0.2-0.3-0.2-0.6
			c0-0.2,0.1-0.4,0.2-0.6l0.1-0.1c0.3-0.3,0.8-0.3,1.1,0l1.2,1.2c0.2,0.2,0.6,0.3,0.9,0.2c0.3-0.1,0.5-0.4,0.5-0.7v-9.5
			c0-0.4,0.4-0.8,0.8-0.8h0.1c0.3,0,0.7,0.2,0.8,0.6v7c0,0.4,0.4,0.8,0.8,0.8c0.4,0,0.8-0.4,0.8-0.8V19c0,0,0,0,0,0v-1.4
			c0-0.4,0.4-0.8,0.8-0.8h0.1c0.4,0,0.8,0.4,0.8,0.8v1.3v6.6c0,0.4,0.4,0.8,0.8,0.8c0.4,0,0.8-0.4,0.8-0.8v-6.5
			c0.1-0.4,0.4-0.7,0.8-0.7h0.1c0.4,0,0.8,0.4,0.8,0.8v2v5.1c0,0.4,0.4,0.8,0.8,0.8c0.4,0,0.8-0.4,0.8-0.8v-5
			c0.1-0.3,0.4-0.5,0.7-0.5h0.1c0.4,0,0.8,0.4,0.8,0.8v10.2c0,0.8-0.3,1.4-0.8,2l-0.6,0.6c-0.8,0.9-1.2,1.9-1.2,3.1v10.4h1.6V37.4
			c0-0.8,0.3-1.4,0.8-2l0.6-0.6c0.8-0.9,1.2-1.9,1.2-3.1V21.5C71,20.2,69.9,19.1,68.6,19.1z"/>
	</g>
	<g>
		<path class="st0" d="M12.8,60c-1.2,1.8-3.3,3-5.8,3c-4,0-7-3.2-7-7.1c0-3.9,3-7.1,7-7.1c2.5,0,4.6,1.2,5.8,2.9l-2.4,1.6
			c-0.7-1.1-2-1.8-3.4-1.8c-2.3,0-4,1.9-4,4.3c0,2.4,1.7,4.3,4,4.3c1.4,0,2.7-0.8,3.5-1.9L12.8,60z"/>
		<path class="st0" d="M16.5,48.3v14.5h-2.8V48.3H16.5z"/>
		<path class="st0" d="M25.3,61.7c-0.6,0.9-2,1.2-2.7,1.2c-2.4,0-4.8-1.9-4.8-4.9c0-3,2.4-4.9,4.8-4.9c0.6,0,2,0.2,2.7,1.2v-1H28
			v9.4h-2.8V61.7z M23,60.3c1.1,0,2.3-0.8,2.3-2.2c0-1.4-1.1-2.2-2.3-2.2c-1.2,0-2.4,0.9-2.4,2.2C20.6,59.4,21.8,60.3,23,60.3z"/>
		<path class="st0" d="M32.2,58.9c-2.8-0.8-2.8-2.2-2.8-3.1c0-1.4,1.7-2.7,3.7-2.7c1.9,0,3.8,0.8,3.9,3.1h-2.6
			c0-0.7-0.6-0.8-1.1-0.8c-0.6,0-1,0.3-1,0.7c0,0.3,0.3,0.6,0.8,0.7l1.6,0.4c2.3,0.6,2.6,2.1,2.6,2.7c0,2-2.1,2.9-4.1,2.9
			c-1.9,0-3.9-1.1-3.9-3.2h2.6c0,0.5,0.6,1.1,1.4,1.1c0.6,0,1.1-0.3,1.1-0.8c0-0.4-0.2-0.6-0.9-0.8L32.2,58.9z"/>
		<path class="st0" d="M40.8,58.9C38,58.2,38,56.7,38,55.9c0-1.4,1.7-2.7,3.7-2.7c1.9,0,3.8,0.8,3.9,3.1h-2.6c0-0.7-0.6-0.8-1.1-0.8
			c-0.6,0-1,0.3-1,0.7c0,0.3,0.3,0.6,0.8,0.7l1.6,0.4c2.3,0.6,2.6,2.1,2.6,2.7c0,2-2.1,2.9-4.1,2.9c-1.9,0-3.9-1.1-3.9-3.2h2.6
			c0,0.5,0.6,1.1,1.4,1.1c0.6,0,1.1-0.3,1.1-0.8c0-0.4-0.2-0.6-0.9-0.8L40.8,58.9z"/>
		<path class="st0" d="M55.8,57.8v5H53v-5.1c0-1.2-0.7-1.8-1.5-1.8c-0.8,0-1.6,0.5-1.6,1.9v5H47v-9.4h2.8v1.4c0.4-1,1.4-1.5,2.5-1.5
			c1.5,0,2.5,0.6,3,1.6c0.9-1.5,2.2-1.7,2.8-1.7c2.2,0,3.6,1.4,3.6,4.3v5.3h-2.8v-5c0-1.2-0.7-1.9-1.5-1.9
			C56.5,55.9,55.8,56.5,55.8,57.8z"/>
		<path class="st0" d="M70.3,61.7c-0.6,0.9-2,1.2-2.7,1.2c-2.4,0-4.8-1.9-4.8-4.9c0-3,2.4-4.9,4.8-4.9c0.6,0,2,0.2,2.7,1.2v-1h2.8
			v9.4h-2.8V61.7z M68.1,60.3c1.1,0,2.3-0.8,2.3-2.2c0-1.4-1.1-2.2-2.3-2.2c-1.2,0-2.4,0.9-2.4,2.2C65.7,59.4,66.9,60.3,68.1,60.3z"
			/>
		<path class="st0" d="M80.5,53.4v2.2h-2v7.2h-2.8v-7.2h-1.7v-2.2h1.7v-3.6h2.8v3.6H80.5z"/>
		<path class="st0" d="M89.9,61.1C89,62.5,87.2,63,85.6,63c-2.7,0-4.9-2-4.9-4.9s2.2-4.9,4.9-4.9c2.7,0,4.8,2,4.8,4.9
			c0,0.2,0,0.6,0,0.9h-6.9c0.1,1.1,1.3,1.6,2.3,1.6c0.8,0,1.6-0.3,2.1-0.9L89.9,61.1z M87.6,57.3c-0.1-1.1-1.2-1.6-2-1.6
			c-0.8,0-1.9,0.4-2.1,1.6H87.6z"/>
	</g>
</g>
</svg>
